<svg width="1932" height="653" viewBox="0 0 1932 653" fill="none" xmlns="http://www.w3.org/2000/svg">
<path d="M367.337 320.582C367.533 320.236 367.716 319.907 367.908 319.557C369.774 316.178 372.595 311.069 380.162 310.965H380.383C387.824 310.965 391.12 316.232 393.099 319.39L393.178 319.519C393.224 319.607 393.987 321.136 393.266 322.357C392.528 323.607 391.353 323.469 391.303 323.469L369.149 323.778H369.145C369.128 323.778 369.112 323.773 369.099 323.773C369.041 323.765 367.733 323.557 367.337 322.54C366.958 321.573 367.32 320.623 367.337 320.582ZM394.32 326.903C394.874 313.961 393.791 287.794 385.783 279.415C384.145 277.703 382.287 276.836 380.249 276.836C378.178 276.836 376.291 277.732 374.645 279.503C367.016 287.69 365.712 312.965 366.674 327.207L394.32 326.903Z" fill="#6B6455"/>
<path d="M360.706 351.567C361.889 351.017 374.502 350.8 381.01 350.758C386.714 350.729 400.102 350.729 401.131 351.517C402.968 352.917 414.118 386.379 403.56 402.8C401.335 406.263 399.368 408.708 397.381 410.483L396.935 418.083C398.573 418.104 404.685 418.283 406.077 419.742C406.585 420.275 406.806 420.708 406.898 420.988C410.339 420.483 413.302 420.025 414.885 417.125C417.889 411.621 412.027 359.208 410.16 343.275C410.156 343.183 410.052 341.475 407.964 340.208C406.431 339.275 405.156 338.983 404.66 338.904C404.343 339.667 403.268 342.071 401.868 342.879C400.16 343.863 361.585 344.392 359.748 343.463C358.068 342.608 357.193 339.946 356.981 339.208C356.543 339.142 355.227 339.108 353.51 340.6C351.373 342.454 350.768 346.808 350.76 346.854C349.589 363.096 346.018 411.042 345.56 416.408C345.368 418.663 350.364 420.208 355.485 420.771C355.606 420.571 355.864 420.292 356.418 419.867C357.843 418.771 362.939 418.692 364.406 418.692H364.464L364.064 411.125C360.927 409 358.235 405.971 355.831 401.875C348.664 389.642 353.627 370 356.093 362.121C357.793 356.692 359.864 351.958 360.706 351.567Z" fill="#6B6455"/>
<path d="M600.906 415.153C600.431 411.224 600.106 409.394 598.848 407.257C598.019 406.678 596.485 405.169 595.36 404.065L595.344 404.053C596.615 408.286 598.777 413.232 601.035 417.086C601.01 416.757 600.99 416.394 600.969 416.019C600.944 415.64 600.927 415.324 600.906 415.153Z" fill="#6B6455"/>
<path d="M613.994 393.759C614.265 395.58 616.265 399.176 617.332 400.38C617.598 400.684 617.957 401.13 618.386 401.659C620.186 403.893 623.207 407.639 625.298 408.03C627.673 408.468 636.648 405.501 642.069 403.322C642.74 400.814 646.528 386.101 646.561 384.368C646.603 382.447 642.032 377.914 639.573 375.476C638.148 374.068 633.815 369.772 629.961 369.734H629.869C626.04 369.734 619.361 372.026 617.673 374.422C615.903 376.943 613.707 391.834 613.994 393.759Z" fill="#6B6455"/>
<path d="M631.619 342.747C633.948 343.193 635.678 343.868 636.711 344.268C636.94 344.355 637.136 344.434 637.294 344.489L656.336 342.343C652.094 341.234 647.532 340.297 642.665 340.297C637.557 340.297 632.769 340.884 628.086 342.093C629.303 342.305 630.836 342.597 631.49 342.722L631.619 342.747Z" fill="#6B6455"/>
<path d="M389.012 526.188C386.033 531.346 384.22 536.933 383.633 542.8L421.829 546.121L389.012 526.188Z" fill="#6B6455"/>
<path d="M407.646 505.605C402.576 508.555 398.105 512.622 394.68 517.389L426.226 539.389L407.646 505.605Z" fill="#6B6455"/>
<path d="M391.414 579.608C394.293 584.654 398.306 589.133 403.039 592.608L425.022 561.32L391.414 579.608Z" fill="#6B6455"/>
<path d="M383.078 553.23V553.322C383.078 559.176 384.299 564.885 386.711 570.285L421.391 554.151L383.078 553.23Z" fill="#6B6455"/>
<path d="M294.195 286.122C301.362 282.843 310.066 274.947 320.758 262.034C332.541 247.801 337.037 239.618 340.316 233.643C340.558 233.209 340.791 232.78 341.024 232.359C335.287 238.718 330.633 243.705 326.479 248.159C316.074 259.305 308.508 267.409 294.195 286.122Z" fill="#6B6455"/>
<path d="M686.26 407.508C685.823 407.508 685.368 407.529 684.985 407.549L684.585 407.57C682.381 407.666 680.235 408.024 679.314 408.179C677.827 408.429 675.477 411.058 674.598 412.045L674.443 412.216C673.585 413.17 671.802 415.162 671.027 416.941C669.698 419.995 666.698 429.691 667.606 430.191C668.635 430.516 670.706 429.02 672.081 428.033C672.514 427.72 672.898 427.445 673.202 427.258C681.085 420.991 688.668 408.829 687.898 407.829C687.698 407.574 687.006 407.508 686.26 407.508Z" fill="#6B6455"/>
<path d="M680.605 366.915C679.409 368.494 674.546 380.24 674.884 383.294C675.242 386.544 679.346 397.59 680.059 398.186C680.813 398.782 688.505 399.323 689.592 397.986C690.663 396.665 691.142 392.303 691.142 388.565C691.142 380.448 688.901 372.528 684.663 365.644C684.305 365.615 683.93 365.586 683.559 365.586C682.501 365.586 681.438 365.819 680.605 366.915Z" fill="#6B6455"/>
<path d="M620.554 430.388C618.7 429.684 616.154 429.838 614.108 429.963C613.596 429.996 613.121 430.025 612.688 430.038C616.679 432.546 622.975 435.479 627.683 437.042C627.1 436.475 626.467 435.775 625.779 435.017C624.075 433.125 622.142 430.988 620.554 430.388Z" fill="#6B6455"/>
<path d="M655.762 417.773C655.249 417.565 654.72 417.357 654.187 417.127C653.508 416.84 652.787 416.502 652.045 416.152C649.641 415.027 646.928 413.752 644.995 413.936C643.358 414.098 639.695 415.344 635.82 416.665C633.758 417.369 631.624 418.094 629.687 418.694C629.124 420.865 627.92 426.227 628.453 427.523C629.128 429.161 631.687 431.736 632.937 432.486C634.341 433.327 637.866 435.169 641.166 436.123C641.687 436.123 646.995 436.169 650.078 435.498C650.778 435.344 651.495 435.219 652.191 435.094C653.737 434.819 655.203 434.561 656.266 434.044C657.508 431.473 660.166 423.227 660.291 421.173C660.387 419.627 658.345 418.811 655.762 417.773Z" fill="#6B6455"/>
<path d="M428.36 603.932L431.765 565.711L411.781 598.357C416.944 601.415 422.519 603.29 428.36 603.932Z" fill="#6B6455"/>
<path d="M263.101 530.296C266.639 530.101 269.36 527.063 269.164 523.526C268.964 519.984 265.901 517.288 262.389 517.463C260.676 517.559 259.101 518.313 257.956 519.592C256.814 520.871 256.235 522.521 256.331 524.234C256.426 525.951 257.181 527.526 258.46 528.667C259.739 529.813 261.376 530.417 263.101 530.296Z" fill="#6B6455"/>
<path d="M603.823 363.843C602.519 363.422 600.49 366.268 599.29 367.955L598.919 368.476C595.803 374.268 594.211 380.534 594.211 387.064C594.211 388.001 594.253 389.018 594.348 390.159C594.928 391.572 597.723 396.505 600.136 396.505C601.257 396.505 603.794 393.701 605.178 391.88C605.436 388.339 606.648 378.476 608.682 371.305C607.369 368.555 604.936 364.184 603.823 363.843Z" fill="#6B6455"/>
<path d="M277.241 316.113C276.857 316.959 276.466 317.813 276.074 318.667C274.857 321.317 273.599 324.055 272.649 326.455C266.136 342.942 263.128 354.297 258.578 371.476C256.895 377.834 254.999 384.992 252.641 393.484C252.932 393.151 253.257 392.788 253.62 392.388C258.724 386.713 269.345 374.913 274.028 351.484C277.678 333.238 277.432 324.063 277.286 318.584C277.257 317.659 277.236 316.842 277.241 316.113Z" fill="#6B6455"/>
<path d="M248.435 467.27C248.177 475.732 247.91 484.478 247.469 495.874C247.669 495.674 247.873 495.474 248.081 495.27C254.131 489.337 263.277 480.374 262.744 459.391C262.223 438.932 253.165 424.32 250.277 420.17C249.231 441.091 248.848 453.812 248.435 467.27Z" fill="#6B6455"/>
<path d="M417.426 170.98C414.347 173.157 411.637 175.005 408.59 177.082C401.572 181.866 392.907 187.776 374.854 201.144C380.857 198.51 387.861 194.997 396.212 188.687C407.783 179.936 412.777 176.015 417.426 170.98Z" fill="#6B6455"/>
<path d="M645.171 617.4C608.433 617.4 578.55 587.512 578.55 550.779C578.55 528.179 587.992 509.175 605.167 497.158L476.329 497.375C493.842 509.691 503.475 528.616 503.475 550.779C503.475 587.512 473.592 617.4 436.854 617.4C400.117 617.4 370.233 587.512 370.233 550.779C370.233 514.041 400.117 484.158 436.854 484.158C439.129 484.158 441.471 483.979 443.196 482.704C444.871 481.458 445.538 479.116 445.546 479.095L454.658 451.341C454.671 451.316 455.117 450.1 454.796 448.662C454.521 447.412 453.904 447.05 453.579 446.858L453.458 446.783C449.971 444.47 448.158 441.629 448.075 438.345C447.875 430.5 453.729 420.77 482.725 418.945C483.158 417.729 483.838 417.12 483.871 417.091C483.925 417.041 484 417.016 484.075 417.016H507.483C507.704 417.05 511.742 417.783 513.846 422.295C516.008 426.929 512.996 428.366 511.375 429.137C509.625 429.97 491.492 429.704 489.433 429.67C489.308 429.65 487.533 429.333 485.771 427.966C470.967 429.191 462.913 432.125 462.479 436.45C462.4 437.233 462.65 437.933 463.238 438.591C465.988 441.679 475.671 443.375 492.013 443.633C492.388 442.958 492.775 442.608 492.792 442.595C492.85 442.545 492.925 442.516 493 442.516H516.408C516.633 442.55 520.667 443.287 522.771 447.795C523.863 450.137 523.488 451.741 522.979 452.675C522.133 454.229 520.383 454.983 519.033 455.166C516.517 455.508 499.113 456.029 498.371 456.05C498.25 456.037 496.946 455.787 495.463 454.87C487.888 454.87 482.771 454.495 475.242 453.404C475.221 453.4 473.108 453.091 472.129 453.758C471.188 454.4 469.871 455.612 469.579 455.883L461.967 479.295C461.958 479.312 461.325 481.37 461.946 482.558C462.496 483.612 463.363 484.016 463.563 484.1L544.421 483.77C544.138 483.154 543.942 482.604 543.813 482.066C541.575 472.916 551.542 469.52 555.292 468.241C559.475 466.816 568.604 463.945 568.696 463.916C569.117 463.829 578.367 461.983 584.346 462.945C590.388 463.912 603.233 471.237 606.763 476.533C608.154 478.62 608.296 480.954 607.183 483.483L647.275 483.295C647.363 483.295 647.442 483.333 647.496 483.387C682.971 484.62 711.792 514.808 711.792 550.779C711.792 587.512 681.908 617.4 645.171 617.4ZM354.375 432.783C353.467 431.908 353.513 430.062 353.575 429.3C345.017 428.779 334.838 427.291 334.154 423.175C333.225 417.608 339.554 345.466 342.529 339.016C344.183 335.433 347.771 332.808 353.188 331.212C353.075 330.654 352.967 329.475 353.792 328.545C354.8 327.425 355.788 327.241 356.333 327.241H356.346C355.433 311.925 355.6 284.904 366.546 273.079C370.004 269.341 374.321 267.408 379.375 267.325C379.488 267.325 379.604 267.32 379.717 267.32C384.792 267.32 389.175 269.179 392.75 272.837C404.642 285.004 404.921 314.425 404.458 326.87C405.179 326.887 406.867 327.029 407.658 327.966C408.438 328.895 408.404 330.17 408.346 330.72C414.004 332.679 417.225 334.545 417.929 336.266C423.85 350.833 430.104 415.879 426.292 423.266C424.108 427.495 416.042 428.845 409.542 429.229C409.513 429.7 409.4 430.629 408.963 431.254C408.763 431.537 406.921 434.062 402.554 436.416C397.279 439.262 390.663 440.7 382.867 440.7C382.338 440.7 381.808 440.695 381.271 440.683C372.4 440.466 360.558 438.945 354.533 432.937L354.375 432.783ZM285.558 301.241C286.054 307.241 287.3 327.616 284.075 353.383C280.7 380.345 259.321 399.45 252.446 404.945C254.746 408.187 260.175 416.333 264.742 426.916C270.608 440.512 273 453.195 271.858 464.608C269.846 484.766 257.3 501.116 252.342 506.87C255.15 505.137 258.317 504.141 261.646 503.954C262.021 503.933 262.396 503.925 262.763 503.925C273.267 503.925 282.088 512.162 282.675 522.779C282.788 524.833 282.575 526.895 282.046 528.92L284.55 529.962L287.9 527.129C288.854 524.941 290.288 522.55 292.938 523.262C294.1 523.575 295.05 524.383 295.608 525.541C296.292 526.954 296.321 528.662 295.688 530.116L288.083 547.695C287.263 549.6 285.388 550.833 283.313 550.833C282.538 550.833 281.842 550.687 281.238 550.4C279.254 549.454 280.054 545.512 281.038 543.183L280.446 539.52L276.813 538.008C273.329 541.479 268.738 543.533 263.854 543.804C260.754 543.987 257.75 543.445 254.908 542.225C257.538 581.433 259.825 608.387 259.846 608.654C259.85 608.683 259.85 608.712 259.842 608.737C259.829 608.816 258.304 616.608 250.504 617.037C250.208 617.054 249.913 617.062 249.629 617.062C241.746 617.062 238.388 611.033 238.354 610.97C238.338 610.937 238.325 610.904 238.321 610.87C238.246 610.362 230.621 559.45 231.088 496.041C231.363 458.795 234.329 424.587 239.917 394.37C246.896 356.579 258.008 324.95 272.938 300.366C310.713 238.162 370.3 185.225 445.258 147.279L445.8 147.004C445.908 146.962 446.55 146.75 446.992 147.129C447.396 147.47 447.179 148.087 446.867 148.512L446.742 148.687C443.621 152.991 426.871 175.425 403.775 194.179C388.454 206.62 361.221 217.95 355.525 220.25C354.379 224.216 348.079 243.458 327.4 269.808C311.208 290.441 291.558 298.995 285.558 301.241ZM467.129 338.983C467.971 336.912 469.579 332.316 471.613 326.5C476.763 311.775 484.542 289.525 492.313 272.083C503.529 246.9 531.846 192.187 545.988 177.395C546.158 177.216 546.371 176.937 546.613 176.616C547.496 175.45 548.708 173.85 550.317 173.766C551.196 173.683 552.058 174.141 552.896 175.025C556.854 179.225 606.654 290.97 606.179 294.591C605.725 298.066 595.858 306.862 586.271 315.008L586.079 315.17C580.104 320.245 572.817 326.579 565.1 333.279C543 352.479 517.954 374.241 512.358 376.358C511.3 376.758 510.183 376.929 509.042 376.929C502.021 376.929 494.096 370.383 493.708 370.062L474.242 354.95C474.058 354.82 471.538 353.054 469.392 350.25C466.467 346.433 465.683 342.537 467.129 338.983ZM591.858 136.879C591.867 136.879 591.875 136.875 591.888 136.875C593.013 136.875 596.1 143.875 606.713 169.225C609.042 174.783 611.496 180.654 613.963 186.466C627.9 219.316 643.067 254.508 643.217 254.858C643.258 254.954 643.25 255.066 643.192 255.154C639.408 260.837 630.475 273.875 628.208 273.875C628.167 273.875 628.129 273.87 628.096 273.862C625.338 273.241 608.829 236.795 599.233 215.129C586.033 185.316 573.85 156.22 573.671 154.083C573.296 149.562 589.204 137.154 591.858 136.879ZM699.3 389.704C699.3 420.958 673.871 446.383 642.617 446.383C611.363 446.383 585.938 420.958 585.938 389.704C585.938 380.72 588.004 372.108 592.075 364.095C592.125 363.987 597.725 351.1 607.275 344.258C617.371 337.025 623.529 333.241 642.617 333.025C642.829 333.02 643.046 333.02 643.258 333.02C657.933 333.02 671.796 338.75 682.363 349.195C693.283 359.995 699.3 374.379 699.3 389.704ZM601.021 129.35C602.704 123.929 635.183 103.745 645.642 98.0453C650.625 95.3287 655.588 92.5328 660.388 89.8287C681.992 77.6578 700.646 67.1453 707.079 71.8328C714.471 77.2245 704.263 113.595 696.813 140.15L695.517 144.779C688.604 169.55 668.796 219.066 660.192 233.087C659.854 233.637 659.446 234.379 658.975 235.237C657.108 238.633 654.592 243.212 652.413 243.212C652.275 243.212 652.138 243.195 652.004 243.158C649.421 242.433 641.417 224.404 628.538 194.8C626.671 190.512 624.779 186.166 622.9 181.875C620.075 175.42 617.313 169.22 614.642 163.225C605.554 142.833 600.442 131.208 601.021 129.35ZM180.55 220.054C179.233 221.662 179.367 223.995 179.367 223.995L179.875 284.191C179.875 284.191 180.275 288.008 178.65 289.741C176.458 292.079 174.704 292.087 174.704 292.087L4.4 338.762C4.4 338.762 2.16665 339.291 1.23749 340.325C-0.00417866 341.704 1.86815e-07 344.237 1.86815e-07 344.237L0.824992 383.6C0.824992 383.6 0.616701 386.283 1.96253 387.42C3.5792 388.791 5.16249 388.383 5.16249 388.383L24.2083 383.637C24.2083 383.637 25.6334 383.404 26.4417 384.32C27.2875 385.291 27.1125 387.487 27.1125 387.487L21.0709 641.154C21.0709 641.154 20.7875 643.562 21.8833 644.55C22.9792 645.533 25.8292 645.475 25.8292 645.475H62.3167C62.3167 645.475 64.2583 645.5 65.3833 644.55C66.3333 643.745 66.3542 640.604 66.3542 640.604L68.8167 376.529C68.8167 376.529 68.5542 374.187 69.2209 373.091C70.025 371.779 72.2083 371.675 72.2083 371.675L173.258 346.495C173.258 346.495 178.067 345.116 179.233 345.991C180.404 346.866 180.463 350.52 180.463 350.52L182.933 635.704C182.933 635.704 182.708 640.9 184.604 643.125C187.125 646.083 192.383 646.204 192.383 646.204L741.388 648.858C741.388 648.858 743.604 648.45 744.554 647.341C745.667 646.045 745.758 644.037 745.758 644.037L746.496 5.287C746.496 5.287 746.504 1.887 744.971 0.903665C742.821 -0.479669 740.696 0.136998 740.696 0.136998L184.575 217.55C184.575 217.55 181.863 218.445 180.55 220.054Z" fill="#6B6455"/>
<path d="M690.241 521.832C687.291 516.69 683.195 512.153 678.357 508.674L656.203 540.582L690.241 521.832Z" fill="#6B6455"/>
<path d="M652.694 497.555L649.469 536.188L669.519 502.971C664.302 499.946 658.644 498.126 652.694 497.555Z" fill="#6B6455"/>
<path d="M646.859 604.546C646.88 604.546 646.905 604.55 646.93 604.55C647.068 604.559 647.209 604.571 647.347 604.571C653.122 604.571 658.747 603.388 664.076 601.05L647.839 566.15L646.859 604.546Z" fill="#6B6455"/>
<path d="M636.407 603.932L639.811 565.711L619.828 598.357C624.991 601.415 630.566 603.29 636.407 603.932Z" fill="#6B6455"/>
<path d="M641.437 535.753L642.204 497.023C636.262 497.036 630.479 498.307 625.008 500.807L641.437 535.753Z" fill="#6B6455"/>
<path d="M692.448 575.885C695.548 570.665 697.436 565.015 698.061 559.085L659.398 555.781L692.448 575.885Z" fill="#6B6455"/>
<path d="M671.061 356.34C670.615 356.031 669.848 355.19 668.886 354.136C667.898 353.048 666.782 351.819 665.865 351.027C664.269 349.644 663.04 348.777 660.711 349.344L639.373 352.023L636.523 361.181C639.623 363.044 643.878 365.711 646.057 367.836C647.619 369.356 649.244 371.127 650.678 372.69C652.248 374.402 653.603 375.881 654.123 376.186C654.944 376.677 664.853 375.273 666.165 374.656C667.094 374.161 671.915 362.856 672.353 360.586C672.682 358.881 671.84 357.34 671.061 356.34Z" fill="#6B6455"/>
<path d="M698.653 548.581V548.573C698.661 548.469 698.669 548.365 698.669 548.26C698.669 542.381 697.432 536.648 694.998 531.219L659.836 547.752L698.653 548.581Z" fill="#6B6455"/>
<path d="M599.469 579.608C602.348 584.654 606.36 589.137 611.094 592.608L633.077 561.32L599.469 579.608Z" fill="#6B6455"/>
<path d="M673.47 596.38C678.583 593.505 683.133 589.464 686.662 584.66L655.008 562.514L673.47 596.38Z" fill="#6B6455"/>
<path d="M490.606 548.581V548.573C490.614 548.469 490.622 548.365 490.622 548.26C490.622 542.377 489.385 536.648 486.952 531.219L451.789 547.752L490.606 548.581Z" fill="#6B6455"/>
<path d="M465.423 596.38C470.532 593.505 475.086 589.464 478.615 584.66L446.961 562.514L465.423 596.38Z" fill="#6B6455"/>
<path d="M438.812 604.546C438.833 604.546 438.858 604.55 438.879 604.55C439.021 604.559 439.158 604.571 439.3 604.571C445.075 604.571 450.7 603.388 456.025 601.05L439.792 566.15L438.812 604.546Z" fill="#6B6455"/>
<path d="M484.405 575.885C487.505 570.665 489.393 565.015 490.022 559.085L451.359 555.781L484.405 575.885Z" fill="#6B6455"/>
<path d="M591.125 553.231C591.127 553.26 591.121 553.291 591.123 553.321C591.123 559.178 592.346 564.882 594.758 570.285L629.437 554.151L591.125 553.231Z" fill="#6B6455"/>
<path d="M444.647 497.555L441.422 536.188L461.472 502.971C456.255 499.946 450.597 498.126 444.647 497.555Z" fill="#6B6455"/>
<path d="M615.693 505.605C610.622 508.555 606.152 512.622 602.727 517.389L634.272 539.389L615.693 505.605Z" fill="#6B6455"/>
<path d="M433.394 535.753L434.161 497.023C428.219 497.036 422.436 498.307 416.961 500.807L433.394 535.753Z" fill="#6B6455"/>
<path d="M597.059 526.188C594.076 531.346 592.267 536.933 591.68 542.8L629.876 546.121L597.059 526.188Z" fill="#6B6455"/>
<path d="M448.156 540.58L482.194 521.83C479.248 516.693 475.148 512.151 470.315 508.672L448.156 540.58Z" fill="#6B6455"/>
<path d="M872.172 337.898V78.5059H949.043V151.968L992.589 78.5059H1080.06L1003.19 203.848L1083.09 337.898H995.618L952.072 263.298L949.043 270.114V337.898H872.172Z" fill="#231F20"/>
<path d="M1265.61 208.392C1265.61 179.992 1242.89 156.892 1214.49 156.892C1186.09 156.892 1163.37 179.992 1163.37 208.392C1163.37 236.417 1186.09 259.513 1214.49 259.513C1242.89 259.513 1265.61 236.417 1265.61 208.392ZM1079.3 208.392C1079.3 133.796 1139.89 73.209 1214.49 73.209C1289.09 73.209 1349.68 133.796 1349.68 208.392C1349.68 282.992 1289.09 343.201 1214.49 343.201C1139.89 343.201 1079.3 282.992 1079.3 208.392Z" fill="#231F20"/>
<path d="M1427.31 337.898V232.627L1343.62 78.5059H1428.83L1465.55 151.21L1502.66 78.5059H1587.87L1504.18 233.006V337.898H1427.31Z" fill="#231F20"/>
<path d="M1651.48 292.836H1685.56L1668.52 247.015L1651.48 292.836ZM1552.27 337.898L1668.52 70.5566L1785.15 337.898H1702.6L1697.68 324.644H1639.74L1634.82 337.898H1552.27Z" fill="#231F20"/>
<path d="M872.141 648.006V583.631C874.411 584.768 877.441 585.148 879.711 585.148C895.616 585.148 907.732 573.027 907.732 557.502C907.732 546.143 902.057 535.16 895.236 523.423C886.907 508.277 877.441 490.856 877.441 467.381C877.441 418.531 905.466 383.693 961.507 383.693C969.836 383.693 980.061 384.827 986.878 387.481V451.098C984.986 450.718 984.607 450.718 983.849 450.718C970.595 450.718 960.37 460.185 960.37 475.331C960.37 483.664 965.295 491.614 971.353 501.46C980.82 516.606 992.936 535.539 992.936 566.214C992.936 612.031 960.749 651.793 905.086 651.793C891.453 651.793 880.849 650.277 872.141 648.006Z" fill="#6B6455"/>
<path d="M1198.94 517.742C1198.94 489.342 1176.22 466.242 1147.82 466.242C1119.42 466.242 1096.7 489.342 1096.7 517.742C1096.7 545.767 1119.42 568.863 1147.82 568.863C1176.22 568.863 1198.94 545.767 1198.94 517.742ZM1012.63 517.742C1012.63 443.146 1073.22 382.559 1147.82 382.559C1222.42 382.559 1283 443.146 1283 517.742C1283 592.342 1222.42 652.55 1147.82 652.55C1073.22 652.55 1012.63 592.342 1012.63 517.742Z" fill="#6B6455"/>
<path d="M1427.66 515.473H1298.91V592.343H1427.66V515.473Z" fill="#6B6455"/>
<path d="M1457.95 647.249V387.857H1534.82V461.32L1578.36 387.857H1665.84L1588.97 513.199L1668.87 647.249H1581.39L1537.85 572.649L1534.82 579.466V647.249H1457.95Z" fill="#6B6455"/>
<path d="M1840.78 517.742C1840.78 489.342 1818.06 466.242 1789.66 466.242C1761.26 466.242 1738.54 489.342 1738.54 517.742C1738.54 545.767 1761.26 568.863 1789.66 568.863C1818.06 568.863 1840.78 545.767 1840.78 517.742ZM1654.48 517.742C1654.48 443.146 1715.06 382.559 1789.66 382.559C1864.26 382.559 1924.85 443.146 1924.85 517.742C1924.85 592.342 1864.26 652.55 1789.66 652.55C1715.06 652.55 1654.48 592.342 1654.48 517.742Z" fill="#6B6455"/>
<path d="M1930.5 222.223C1930.33 221.115 1930.1 219.981 1929.49 219.048C1927.5 216.052 1924.86 195.84 1921.4 196.806C1913.72 179.71 1909.81 176.96 1908.04 179.006C1906.25 180.685 1909.53 188.773 1911.32 197.165C1911.84 199.635 1910.35 201.069 1910.77 203.256C1912.61 212.869 1910.74 218.919 1906.32 227.656C1903.77 232.723 1904.48 241.944 1900.95 246.394C1900.61 246.823 1900.28 247.26 1899.95 247.706C1899.47 245.373 1899.1 243.023 1898.92 240.644C1898.39 233.656 1899.56 226.656 1899.64 219.652C1899.72 212.644 1898.51 205.223 1893.98 199.877C1892.24 197.827 1890.11 196.131 1888.44 194.031C1883.98 188.452 1883.67 184.815 1884.72 180.11C1887.15 177.402 1888.77 173.96 1889.23 170.348C1889.53 167.99 1889.36 165.598 1889.19 163.223C1889.11 162.073 1889.03 160.919 1888.95 159.765C1888.97 159.506 1888.99 159.244 1889.01 158.985C1889.25 155.381 1888.88 151.148 1888.21 148.519C1887.21 144.623 1889.8 140.577 1890.71 138.673C1891.26 137.494 1892.52 135.706 1892.85 134.327C1893.12 133.219 1895.41 124.752 1895.6 121.956C1895.78 119.16 1898.58 111.665 1894.2 111.381C1889.82 111.098 1886.96 113.91 1885.53 115.315C1884.1 116.723 1877.59 122.481 1875 124.002C1872.42 125.519 1871.35 124.381 1868.96 123.677C1867.26 123.173 1863.7 123.131 1861.78 123.144C1859.87 123.131 1856.31 123.173 1854.61 123.677C1852.22 124.381 1851.15 125.519 1848.56 124.002C1845.97 122.481 1839.47 116.723 1838.04 115.315C1836.61 113.91 1833.74 111.098 1829.36 111.381C1824.99 111.665 1827.78 119.16 1827.97 121.956C1828.16 124.752 1830.44 133.219 1830.71 134.327C1831.04 135.706 1832.3 137.494 1832.86 138.673C1833.76 140.577 1836.36 144.623 1835.36 148.519C1834.69 151.148 1834.31 155.381 1834.56 158.985C1834.58 159.244 1834.6 159.506 1834.62 159.765C1834.54 160.919 1834.46 162.073 1834.37 163.223C1834.21 165.598 1834.04 167.99 1834.34 170.348C1834.8 173.96 1836.42 177.402 1838.85 180.11C1839.9 184.815 1839.58 188.452 1835.13 194.031C1833.45 196.131 1831.33 197.827 1829.59 199.877C1825.06 205.223 1823.85 212.644 1823.93 219.652C1824 226.656 1825.18 233.656 1824.65 240.644C1824.05 248.623 1821.26 256.248 1819.59 264.073C1817.95 271.781 1817.4 279.715 1817.95 287.577C1818.54 295.831 1823.44 304.369 1822.19 312.565C1821.87 314.702 1821.2 317.219 1822.7 318.777C1823.42 319.523 1824.47 319.823 1825.48 320.077C1826.86 320.427 1828.25 320.731 1829.64 321.023C1829.34 321.769 1829.21 322.531 1829.43 323.327C1829.82 324.706 1831.17 325.54 1832.42 326.231C1833.66 326.919 1834.96 327.602 1836.31 328.069C1835.6 329.244 1835.09 330.323 1835.15 331.219C1835.3 333.394 1836.88 334.835 1836.88 334.835C1836.88 334.835 1835.9 335.64 1836.77 337.798C1837.64 339.956 1840.57 340.04 1840.57 340.04C1840.57 340.04 1841.83 343.123 1845.46 342.335C1849.09 341.548 1849.7 340.285 1849.7 340.285C1849.7 340.285 1852.98 339.973 1854.58 338.223C1856.18 336.473 1856.25 331.798 1856.37 329.54C1856.48 327.752 1856.96 325.423 1857.14 323.602C1858.7 323.431 1860.26 323.173 1861.78 322.827C1863.31 323.173 1864.86 323.431 1866.43 323.602C1866.6 325.423 1867.09 327.752 1867.19 329.54C1867.32 331.798 1867.39 336.473 1868.99 338.223C1870.59 339.973 1873.87 340.285 1873.87 340.285C1873.87 340.285 1874.47 341.548 1878.11 342.335C1881.74 343.123 1883 340.04 1883 340.04C1883 340.04 1885.92 339.956 1886.8 337.798C1887.67 335.64 1886.68 334.835 1886.68 334.835C1886.68 334.835 1888.27 333.394 1888.41 331.219C1888.47 330.323 1887.96 329.244 1887.26 328.069C1888.61 327.602 1889.91 326.919 1891.15 326.231C1892.4 325.54 1893.75 324.706 1894.13 323.327C1894.36 322.531 1894.23 321.769 1893.93 321.023C1895.32 320.731 1896.71 320.427 1898.09 320.077C1899.09 319.823 1900.15 319.523 1900.87 318.777C1902.37 317.219 1901.7 314.702 1901.37 312.565C1900.65 307.781 1902.01 302.881 1903.4 297.985C1912.99 289.823 1920.51 282.277 1925.25 268.956C1926.56 265.26 1927.68 261.398 1927.44 257.485C1927.3 255.306 1926.75 253.156 1926.79 250.973C1926.86 247.915 1928.1 245.019 1929.01 242.098C1931.02 235.702 1931.53 228.844 1930.5 222.223Z" fill="#231F20"/>
</svg>
