<svg width="761" height="500" viewBox="0 0 761 500" fill="none" xmlns="http://www.w3.org/2000/svg">
<path d="M549.009 488.54H558.604L553.817 476.332L549.009 488.54ZM567.425 499.098H562.846L560.221 492.348H547.379L544.767 499.098H540.184L552.65 467.898H554.967L567.425 499.098Z" fill="#231916"/>
<path d="M649.383 499.102H626.941V467.906H649.383V471.76H631.241V481.452H644.016V485.323H631.241V495.252H649.383V499.102Z" fill="#231916"/>
<path d="M734.888 499.479C727.642 499.479 721.738 494.592 721.738 488.592V467.688H726.03V488.163C726.03 492.121 730.005 495.375 734.888 495.375C739.776 495.375 743.734 492.121 743.734 488.163V467.688H748.084V488.163C748.084 494.383 742.163 499.479 734.888 499.479Z" fill="#231916"/>
<path d="M684.528 487.013V487.633H696.02V492.35C693.395 494.263 689.961 495.375 686.478 495.375C678.586 495.375 672.174 490.075 672.174 483.588C672.174 476.983 678.499 471.846 686.561 471.846C690.491 471.846 693.999 473.129 697.028 475.642L697.566 476.104L701.099 473.542L699.903 472.55C696.053 469.321 691.541 467.688 686.478 467.688C676.191 467.688 667.828 474.821 667.828 483.588C667.828 492.342 676.191 499.479 686.478 499.479C691.432 499.479 696.178 497.767 699.828 494.704L700.366 494.242V483.733H689.016L684.528 487.013Z" fill="#231916"/>
<path d="M591.695 473.133V499.099H596.012V475.083L591.695 473.133Z" fill="#231916"/>
<path d="M606.669 467.906H581.086V471.76H606.669V467.906Z" fill="#231916"/>
<path d="M511.453 473.133V499.099H515.795V475.083L511.453 473.133Z" fill="#231916"/>
<path d="M526.438 467.906H500.863V471.76H526.438V467.906Z" fill="#231916"/>
<path d="M184.985 495.441C177.514 495.441 171.877 490.349 171.877 483.636C171.877 476.953 177.514 471.895 184.985 471.895C192.443 471.895 198.089 476.953 198.089 483.636C198.089 490.349 192.443 495.441 184.985 495.441ZM184.985 467.766C175.039 467.766 167.535 474.586 167.535 483.636C167.535 492.711 175.039 499.524 184.985 499.524C194.948 499.524 202.464 492.711 202.464 483.636C202.464 474.586 194.948 467.766 184.985 467.766Z" fill="#231916"/>
<path d="M347.216 488.594H356.808L352.028 476.398L347.216 488.594ZM365.624 499.169H361.058L358.437 492.415H345.578L342.962 499.169H338.387L350.858 467.961H353.174L365.624 499.169Z" fill="#231916"/>
<path d="M434.396 488.594H443.984L439.196 476.398L434.396 488.594ZM452.804 499.169H448.225L445.613 492.415H432.746L430.138 499.169H425.559L438.025 467.961H440.334L452.804 499.169Z" fill="#231916"/>
<path d="M268.879 468.125V499.171H273.258V470.075L268.879 468.125Z" fill="#231916"/>
<path d="M395.199 487.21V487.865H406.691V492.569C404.066 494.51 400.624 495.56 397.154 495.56C389.266 495.56 382.845 490.31 382.845 483.794C382.845 477.215 389.17 472.056 397.229 472.056C401.149 472.056 404.67 473.348 407.704 475.856L408.237 476.298L411.774 473.748L410.574 472.765C406.724 469.527 402.199 467.906 397.154 467.906C386.866 467.906 378.508 475.031 378.508 483.794C378.508 492.56 386.866 499.694 397.154 499.694C402.108 499.694 406.849 497.99 410.504 494.902L411.024 494.448V483.96H399.683L395.199 487.21Z" fill="#231916"/>
<path d="M140.688 473.156V499.11H145.025V475.085L140.688 473.156Z" fill="#231916"/>
<path d="M155.673 467.922H130.09V471.755H155.673V467.922Z" fill="#231916"/>
<path d="M244.931 467.922L232.264 486.101L219.56 467.93H217.098V499.172H221.398V477.905L232.264 493.339L243.127 477.905V499.172H247.435L247.477 467.922H244.931Z" fill="#231916"/>
<path d="M320.008 499.118V467.922H315.8V491.214L297.421 467.922H293.879V499.172H298.096V475.584L316.696 499.118H320.008Z" fill="#231916"/>
<path d="M140.785 398.945C140.785 398.945 155.531 400.995 179.935 388.633C205.414 375.699 207.531 357.833 209.66 338.533C210.489 330.954 205.948 198.395 213.214 174.237C220.468 150.099 227.723 135.579 227.723 135.579L140.785 96.8828V398.945Z" fill="#231916"/>
<path d="M268.813 9.6875H20.0833L0 62.8583L88.2167 91.3V65.7125H304.35L320.925 83.5042H337.071L268.813 9.6875Z" fill="#231916"/>
<path d="M722.488 353.222C704.576 347.301 679.988 345.359 679.988 345.359C679.988 345.359 707.267 362.726 722.663 389.626C725.959 395.114 728.701 395.53 732.213 395.53C744.388 395.53 748.709 386.964 748.709 379.63C748.709 365.355 732.226 356.301 722.488 353.222Z" fill="#231916"/>
<path d="M737.858 319.977L723.967 337.372H577.683L579.888 342.664H634.308L634.104 342.927C619.333 361.693 598.054 382.006 577.121 395.256L576.125 395.889C618.479 386.277 639.425 376.26 662.675 360.489C662.675 360.489 665.163 358.485 665.15 358.485L636.233 342.664L756.713 342.631L759.442 339.514L737.858 319.977Z" fill="#231916"/>
<path d="M635.842 291.531H699.176V315.647H635.842V291.531ZM635.842 261.914H699.176V286.218H635.842V261.914ZM635.842 233.447H699.176V256.61H635.842V233.447ZM635.826 330.185C635.83 330.043 635.842 329.914 635.842 329.76V320.752H699.176V329.264C699.176 330.156 699.196 330.877 699.301 331.518L726.488 329.035C726.555 328.518 726.597 327.977 726.597 327.331V244.452L726.467 244.472C726.467 244.472 726.522 244.36 726.597 244.147V243.985C726.622 243.985 726.638 243.972 726.667 243.96C726.667 240.468 730.063 235.752 733.363 233.697L709.167 216.039C708.376 216.422 698.584 228.147 698.584 228.147H636.851L608.613 221.502V331.677C608.613 332.06 608.626 332.36 608.647 332.693L635.826 330.185Z" fill="#231916"/>
<path d="M693.91 33.1873C693.911 9.76431 649.877 10.8349 631.07 10.8365L629.935 10.8373L679.52 49.01C687.922 48.22 693.911 41.1584 693.91 33.1873Z" fill="#231916"/>
<path d="M632.205 75.2812C631.409 75.6896 622.839 85.9146 622.839 85.9146H579.905L582.234 91.0146H623.672C618.093 110.777 607.134 143.715 577.172 179.794L576.297 180.848C576.297 180.848 593.918 171.723 613.093 154.94C614.234 153.815 615.543 152.577 617.043 151.21C637.605 132.485 652.255 101.435 656.155 95.3063L632.205 75.2812Z" fill="#231916"/>
<path d="M694.189 104.827C736.893 87.7771 744.906 81.0396 748.556 79.8729C748.577 79.8521 748.556 79.8104 748.556 79.7771L721.76 59.0937L721.01 60.4438C713.602 73.8521 702.06 88.1604 691.939 100.985C689.018 95.4479 685.127 86.7396 682.606 73.0229C682.606 73.0229 685.781 67.5812 690.031 64.6354L665.227 46.3438L656.006 58.7896H602.789L605.11 63.8979H656.685V155.852C656.685 162.235 655.897 162.79 653.756 162.79C645.114 162.79 638.118 162.402 629.639 161.815L628.035 161.71C628.035 161.71 652.727 174.919 652.727 192.585C684.76 192.585 682.606 178.59 682.606 161.877V98.0229C689.343 130.369 701.406 146.765 711.881 157.235C720.631 165.985 731.552 173.756 737.235 176.098C737.252 176.052 737.277 176.031 737.289 176.002C747.089 154.54 760.993 152.169 760.993 152.169C753.572 150.052 713.968 135.898 694.189 104.827Z" fill="#231916"/>
<path d="M520.624 44.2479L517.066 59.5104L499.591 44.2854L520.624 44.2479ZM412.732 54.5396C412.732 49.9896 412.295 47.1479 411.724 44.2854H495.795C495.249 44.8188 486.253 57.6521 486.253 57.6521H414.291L416.62 62.7938H516.299L514.382 70.9938C514.382 70.9938 541.737 53.4146 556.228 50.9729L530.216 27.7521L519.728 38.9979H480.991V24.7813C480.991 24.7813 480.978 18.0604 484.657 14.4854L453.382 11.3438V38.9979H410.682C408.832 31.5521 406.841 26.6438 405.116 22.6146C405.116 22.6146 393.999 45.9646 382.816 61.8813C378.487 68.0479 381.241 81.0563 392.241 81.1271C406.812 81.2354 412.732 66.8688 412.732 54.5396Z" fill="#231916"/>
<path d="M509.338 146.713H481.184V126.012H509.338V146.713ZM509.338 173.675H481.184V152.021H509.338V173.675ZM455.109 146.713H426.38V126.012H455.109V146.713ZM455.109 173.675H426.38V152.021H455.109V173.675ZM492.613 101.008H440.463V79.8791H492.613V101.008ZM517.38 88.0583C517.38 85.9749 519.396 82.4083 522.704 79.6166L501.846 64L491.863 74.7625H442.88C438.134 73.3459 415.225 68.7582 415.225 68.7582V111.779L440.409 109.442C440.43 109.063 440.446 106.554 440.45 106.1H492.613C492.625 107.554 492.667 110.262 492.805 111.154L516.45 108.937L508.363 120.904H427.417L401.521 114.4L399.746 114.071C399.746 114.071 399.755 189.308 399.838 189.983L426.38 187.558V178.783H509.338C509.338 178.783 509.346 188.504 509.363 188.992L535.975 186.542C535.979 186.358 535.98 186.212 535.98 186V135.271C535.98 134.554 538.896 128.271 542.58 126.658L517.321 107.783C517.35 103.504 517.38 88.0583 517.38 88.0583Z" fill="#231916"/>
<path d="M470.431 367.7C442.96 365.796 431.619 359.658 425.094 355.654C428.385 350.204 431.281 344.575 433.74 338.767L435.035 342.629H470.381V362.271C470.381 362.492 470.406 362.725 470.431 362.929V367.7ZM441.277 314.775L442.227 317.038H470.381V337.321H434.344C437.315 330.079 439.631 322.538 441.277 314.775ZM442.452 308.567C442.494 308.542 442.523 308.521 442.565 308.517L442.381 308.542C442.381 308.542 446.015 300.642 450.923 299.438L443.048 293.625H444.885L444.844 293.583H470.381V311.746H441.898C442.09 310.658 442.281 309.629 442.452 308.567ZM496.635 293.583H508.66C508.66 294.338 508.715 296.517 508.794 297.063L522.565 296.004C519.252 300.667 511.49 311.746 511.49 311.746H496.635V293.583ZM496.635 267.821H508.644V288.292H496.635V267.821ZM496.635 242.054H508.644V262.708H496.635V242.054ZM474.794 368.217C474.794 368.217 494.335 365.904 496.552 351.346C496.581 351.242 496.606 351.154 496.635 351.058V342.629H547.448C547.56 342.629 547.652 342.583 547.756 342.558L549.715 340.358L528.41 321.046C527.681 321.417 516.669 337.321 516.669 337.321H496.635V317.038H541.869C542.077 317.038 542.227 316.992 542.402 316.971L544.477 314.621L524.11 295.908L533.29 295.188C533.348 294.763 533.365 294.254 533.365 293.692V267.821H557.84C557.91 267.821 557.935 267.788 557.998 267.788L559.906 265.575L543.173 246.4C542.177 246.825 533.365 262.588 533.365 262.588V249.758C533.365 249.758 535.065 244.742 540.298 243.45C540.298 243.404 540.277 243.333 540.277 243.275L517.623 226.35L508.265 236.754H496.635V233.829C496.635 233.829 497.594 225.079 501.385 222.096C500.44 221.733 470.381 214.25 470.381 214.25V236.754H440.019L442.227 242.054H470.381V262.704H427.819L430.148 267.821H470.381V288.288H440.019L440.398 289.175L442.302 293.083L425.769 279.671C425.581 279.571 417.74 291.746 417.74 291.746H413.198L427.815 248.633C427.815 248.633 433.51 244.225 438.131 242.975L412.34 219.446L402.298 230.396H374.44L376.665 235.708H403.798C403.798 235.708 380.06 304.471 379.952 304.675C379.915 304.771 407.765 307.588 407.765 307.588L411.427 296.867H419.144C417.498 309.217 414.215 324.925 407.24 340.183C400.506 331.304 393.831 321.225 390.527 311.621L389.965 309.979C389.965 309.979 391.594 340.4 401.248 355.092C398.194 371.958 371.281 398.942 371.281 398.942C397.602 388.617 407.615 376.154 414.081 369.571C426.585 381.838 444.969 392.929 516.577 392.929C528.61 392.929 545.452 391.846 545.469 391.667C547.431 374.592 558.06 363.883 558.06 363.883C532.46 369.033 474.794 368.217 474.794 368.217Z" fill="#231916"/>
</svg>
