<?xml version="1.0" encoding="UTF-8" standalone="no"?>
<!DOCTYPE svg PUBLIC "-//W3C//DTD SVG 1.1//EN" "http://www.w3.org/Graphics/SVG/1.1/DTD/svg11.dtd">
<svg width="100%" height="100%" viewBox="0 0 761 500" version="1.1" xmlns="http://www.w3.org/2000/svg" xmlns:xlink="http://www.w3.org/1999/xlink" xml:space="preserve" xmlns:serif="http://www.serif.com/" style="fill-rule:evenodd;clip-rule:evenodd;stroke-linejoin:round;stroke-miterlimit:2;">
    <path d="M549.009,488.54L558.604,488.54L553.817,476.332L549.009,488.54ZM567.425,499.098L562.846,499.098L560.221,492.348L547.379,492.348L544.767,499.098L540.184,499.098L552.65,467.898L554.967,467.898L567.425,499.098Z" style="fill:rgb(253,253,253);fill-rule:nonzero;"/>
    <path d="M649.383,499.102L626.941,499.102L626.941,467.906L649.383,467.906L649.383,471.76L631.241,471.76L631.241,481.452L644.016,481.452L644.016,485.323L631.241,485.323L631.241,495.252L649.383,495.252L649.383,499.102Z" style="fill:rgb(253,253,253);fill-rule:nonzero;"/>
    <path d="M734.888,499.479C727.642,499.479 721.738,494.592 721.738,488.592L721.738,467.688L726.03,467.688L726.03,488.163C726.03,492.121 730.005,495.375 734.888,495.375C739.776,495.375 743.734,492.121 743.734,488.163L743.734,467.688L748.084,467.688L748.084,488.163C748.084,494.383 742.163,499.479 734.888,499.479Z" style="fill:rgb(253,253,253);fill-rule:nonzero;"/>
    <path d="M684.528,487.013L684.528,487.633L696.02,487.633L696.02,492.35C693.395,494.263 689.961,495.375 686.478,495.375C678.586,495.375 672.174,490.075 672.174,483.588C672.174,476.983 678.499,471.846 686.561,471.846C690.491,471.846 693.999,473.129 697.028,475.642L697.566,476.104L701.099,473.542L699.903,472.55C696.053,469.321 691.541,467.688 686.478,467.688C676.191,467.688 667.828,474.821 667.828,483.588C667.828,492.342 676.191,499.479 686.478,499.479C691.432,499.479 696.178,497.767 699.828,494.704L700.366,494.242L700.366,483.733L689.016,483.733L684.528,487.013Z" style="fill:rgb(253,253,253);fill-rule:nonzero;"/>
    <path d="M591.695,473.133L591.695,499.099L596.012,499.099L596.012,475.083L591.695,473.133Z" style="fill:rgb(253,253,253);fill-rule:nonzero;"/>
    <rect x="581.086" y="467.906" width="25.583" height="3.854" style="fill:rgb(253,253,253);fill-rule:nonzero;"/>
    <path d="M511.453,473.133L511.453,499.099L515.795,499.099L515.795,475.083L511.453,473.133Z" style="fill:rgb(253,253,253);fill-rule:nonzero;"/>
    <rect x="500.863" y="467.906" width="25.575" height="3.854" style="fill:rgb(253,253,253);fill-rule:nonzero;"/>
    <path d="M184.985,495.441C177.514,495.441 171.877,490.349 171.877,483.636C171.877,476.953 177.514,471.895 184.985,471.895C192.443,471.895 198.089,476.953 198.089,483.636C198.089,490.349 192.443,495.441 184.985,495.441ZM184.985,467.766C175.039,467.766 167.535,474.586 167.535,483.636C167.535,492.711 175.039,499.524 184.985,499.524C194.948,499.524 202.464,492.711 202.464,483.636C202.464,474.586 194.948,467.766 184.985,467.766Z" style="fill:rgb(253,253,253);fill-rule:nonzero;"/>
    <path d="M347.216,488.594L356.808,488.594L352.028,476.398L347.216,488.594ZM365.624,499.169L361.058,499.169L358.437,492.415L345.578,492.415L342.962,499.169L338.387,499.169L350.858,467.961L353.174,467.961L365.624,499.169Z" style="fill:rgb(253,253,253);fill-rule:nonzero;"/>
    <path d="M434.396,488.594L443.984,488.594L439.196,476.398L434.396,488.594ZM452.804,499.169L448.225,499.169L445.613,492.415L432.746,492.415L430.138,499.169L425.559,499.169L438.025,467.961L440.334,467.961L452.804,499.169Z" style="fill:rgb(253,253,253);fill-rule:nonzero;"/>
    <path d="M268.879,468.125L268.879,499.171L273.258,499.171L273.258,470.075L268.879,468.125Z" style="fill:rgb(253,253,253);fill-rule:nonzero;"/>
    <path d="M395.199,487.21L395.199,487.865L406.691,487.865L406.691,492.569C404.066,494.51 400.624,495.56 397.154,495.56C389.266,495.56 382.845,490.31 382.845,483.794C382.845,477.215 389.17,472.056 397.229,472.056C401.149,472.056 404.67,473.348 407.704,475.856L408.237,476.298L411.774,473.748L410.574,472.765C406.724,469.527 402.199,467.906 397.154,467.906C386.866,467.906 378.508,475.031 378.508,483.794C378.508,492.56 386.866,499.694 397.154,499.694C402.108,499.694 406.849,497.99 410.504,494.902L411.024,494.448L411.024,483.96L399.683,483.96L395.199,487.21Z" style="fill:rgb(253,253,253);fill-rule:nonzero;"/>
    <path d="M140.688,473.156L140.688,499.11L145.025,499.11L145.025,475.085L140.688,473.156Z" style="fill:rgb(253,253,253);fill-rule:nonzero;"/>
    <rect x="130.09" y="467.922" width="25.583" height="3.833" style="fill:rgb(253,253,253);fill-rule:nonzero;"/>
    <path d="M244.931,467.922L232.264,486.101L219.56,467.93L217.098,467.93L217.098,499.172L221.398,499.172L221.398,477.905L232.264,493.339L243.127,477.905L243.127,499.172L247.435,499.172L247.477,467.922L244.931,467.922Z" style="fill:rgb(253,253,253);fill-rule:nonzero;"/>
    <path d="M320.008,499.118L320.008,467.922L315.8,467.922L315.8,491.214L297.421,467.922L293.879,467.922L293.879,499.172L298.096,499.172L298.096,475.584L316.696,499.118L320.008,499.118Z" style="fill:rgb(253,253,253);fill-rule:nonzero;"/>
    <path d="M140.785,398.945C140.785,398.945 155.531,400.995 179.935,388.633C205.414,375.699 207.531,357.833 209.66,338.533C210.489,330.954 205.948,198.395 213.214,174.237C220.468,150.099 227.723,135.579 227.723,135.579L140.785,96.883L140.785,398.945Z" style="fill:rgb(253,253,253);fill-rule:nonzero;"/>
    <path d="M268.813,9.688L20.083,9.688L0,62.858L88.217,91.3L88.217,65.713L304.35,65.713L320.925,83.504L337.071,83.504L268.813,9.688Z" style="fill:rgb(253,253,253);fill-rule:nonzero;"/>
    <path d="M722.488,353.222C704.576,347.301 679.988,345.359 679.988,345.359C679.988,345.359 707.267,362.726 722.663,389.626C725.959,395.114 728.701,395.53 732.213,395.53C744.388,395.53 748.709,386.964 748.709,379.63C748.709,365.355 732.226,356.301 722.488,353.222Z" style="fill:rgb(253,253,253);fill-rule:nonzero;"/>
    <path d="M737.858,319.977L723.967,337.372L577.683,337.372L579.888,342.664L634.308,342.664L634.104,342.927C619.333,361.693 598.054,382.006 577.121,395.256L576.125,395.889C618.479,386.277 639.425,376.26 662.675,360.489C662.675,360.489 665.163,358.485 665.15,358.485L636.233,342.664L756.713,342.631L759.442,339.514L737.858,319.977Z" style="fill:rgb(253,253,253);fill-rule:nonzero;"/>
    <path d="M635.842,291.531L699.176,291.531L699.176,315.647L635.842,315.647L635.842,291.531ZM635.842,261.914L699.176,261.914L699.176,286.218L635.842,286.218L635.842,261.914ZM635.842,233.447L699.176,233.447L699.176,256.61L635.842,256.61L635.842,233.447ZM635.826,330.185C635.83,330.043 635.842,329.914 635.842,329.76L635.842,320.752L699.176,320.752L699.176,329.264C699.176,330.156 699.196,330.877 699.301,331.518L726.488,329.035C726.555,328.518 726.597,327.977 726.597,327.331L726.597,244.452L726.467,244.472C726.467,244.472 726.522,244.36 726.597,244.147L726.597,243.985C726.622,243.985 726.638,243.972 726.667,243.96C726.667,240.468 730.063,235.752 733.363,233.697L709.167,216.039C708.376,216.422 698.584,228.147 698.584,228.147L636.851,228.147L608.613,221.502L608.613,331.677C608.613,332.06 608.626,332.36 608.647,332.693L635.826,330.185Z" style="fill:rgb(253,253,253);fill-rule:nonzero;"/>
    <path d="M693.91,33.187C693.911,9.764 649.877,10.835 631.07,10.836L629.935,10.837L679.52,49.01C687.922,48.22 693.911,41.158 693.91,33.187Z" style="fill:rgb(253,253,253);fill-rule:nonzero;"/>
    <path d="M632.205,75.281C631.409,75.69 622.839,85.915 622.839,85.915L579.905,85.915L582.234,91.015L623.672,91.015C618.093,110.777 607.134,143.715 577.172,179.794L576.297,180.848C576.297,180.848 593.918,171.723 613.093,154.94C614.234,153.815 615.543,152.577 617.043,151.21C637.605,132.485 652.255,101.435 656.155,95.306L632.205,75.281Z" style="fill:rgb(253,253,253);fill-rule:nonzero;"/>
    <path d="M694.189,104.827C736.893,87.777 744.906,81.04 748.556,79.873C748.577,79.852 748.556,79.81 748.556,79.777L721.76,59.094L721.01,60.444C713.602,73.852 702.06,88.16 691.939,100.985C689.018,95.448 685.127,86.74 682.606,73.023C682.606,73.023 685.781,67.581 690.031,64.635L665.227,46.344L656.006,58.79L602.789,58.79L605.11,63.898L656.685,63.898L656.685,155.852C656.685,162.235 655.897,162.79 653.756,162.79C645.114,162.79 638.118,162.402 629.639,161.815L628.035,161.71C628.035,161.71 652.727,174.919 652.727,192.585C684.76,192.585 682.606,178.59 682.606,161.877L682.606,98.023C689.343,130.369 701.406,146.765 711.881,157.235C720.631,165.985 731.552,173.756 737.235,176.098C737.252,176.052 737.277,176.031 737.289,176.002C747.089,154.54 760.993,152.169 760.993,152.169C753.572,150.052 713.968,135.898 694.189,104.827Z" style="fill:rgb(253,253,253);fill-rule:nonzero;"/>
    <path d="M520.624,44.248L517.066,59.51L499.591,44.285L520.624,44.248ZM412.732,54.54C412.732,49.99 412.295,47.148 411.724,44.285L495.795,44.285C495.249,44.819 486.253,57.652 486.253,57.652L414.291,57.652L416.62,62.794L516.299,62.794L514.382,70.994C514.382,70.994 541.737,53.415 556.228,50.973L530.216,27.752L519.728,38.998L480.991,38.998L480.991,24.781C480.991,24.781 480.978,18.06 484.657,14.485L453.382,11.344L453.382,38.998L410.682,38.998C408.832,31.552 406.841,26.644 405.116,22.615C405.116,22.615 393.999,45.965 382.816,61.881C378.487,68.048 381.241,81.056 392.241,81.127C406.812,81.235 412.732,66.869 412.732,54.54Z" style="fill:rgb(253,253,253);fill-rule:nonzero;"/>
    <path d="M509.338,146.713L481.184,146.713L481.184,126.012L509.338,126.012L509.338,146.713ZM509.338,173.675L481.184,173.675L481.184,152.021L509.338,152.021L509.338,173.675ZM455.109,146.713L426.38,146.713L426.38,126.012L455.109,126.012L455.109,146.713ZM455.109,173.675L426.38,173.675L426.38,152.021L455.109,152.021L455.109,173.675ZM492.613,101.008L440.463,101.008L440.463,79.879L492.613,79.879L492.613,101.008ZM517.38,88.058C517.38,85.975 519.396,82.408 522.704,79.617L501.846,64L491.863,74.763L442.88,74.763C438.134,73.346 415.225,68.758 415.225,68.758L415.225,111.779L440.409,109.442C440.43,109.063 440.446,106.554 440.45,106.1L492.613,106.1C492.625,107.554 492.667,110.262 492.805,111.154L516.45,108.937L508.363,120.904L427.417,120.904L401.521,114.4L399.746,114.071C399.746,114.071 399.755,189.308 399.838,189.983L426.38,187.558L426.38,178.783L509.338,178.783C509.338,178.783 509.346,188.504 509.363,188.992L535.975,186.542C535.979,186.358 535.98,186.212 535.98,186L535.98,135.271C535.98,134.554 538.896,128.271 542.58,126.658L517.321,107.783C517.35,103.504 517.38,88.058 517.38,88.058Z" style="fill:rgb(253,253,253);fill-rule:nonzero;"/>
    <path d="M470.431,367.7C442.96,365.796 431.619,359.658 425.094,355.654C428.385,350.204 431.281,344.575 433.74,338.767L435.035,342.629L470.381,342.629L470.381,362.271C470.381,362.492 470.406,362.725 470.431,362.929L470.431,367.7ZM441.277,314.775L442.227,317.038L470.381,317.038L470.381,337.321L434.344,337.321C437.315,330.079 439.631,322.538 441.277,314.775ZM442.452,308.567C442.494,308.542 442.523,308.521 442.565,308.517L442.381,308.542C442.381,308.542 446.015,300.642 450.923,299.438L443.048,293.625L444.885,293.625L444.844,293.583L470.381,293.583L470.381,311.746L441.898,311.746C442.09,310.658 442.281,309.629 442.452,308.567ZM496.635,293.583L508.66,293.583C508.66,294.338 508.715,296.517 508.794,297.063L522.565,296.004C519.252,300.667 511.49,311.746 511.49,311.746L496.635,311.746L496.635,293.583ZM496.635,267.821L508.644,267.821L508.644,288.292L496.635,288.292L496.635,267.821ZM496.635,242.054L508.644,242.054L508.644,262.708L496.635,262.708L496.635,242.054ZM474.794,368.217C474.794,368.217 494.335,365.904 496.552,351.346C496.581,351.242 496.606,351.154 496.635,351.058L496.635,342.629L547.448,342.629C547.56,342.629 547.652,342.583 547.756,342.558L549.715,340.358L528.41,321.046C527.681,321.417 516.669,337.321 516.669,337.321L496.635,337.321L496.635,317.038L541.869,317.038C542.077,317.038 542.227,316.992 542.402,316.971L544.477,314.621L524.11,295.908L533.29,295.188C533.348,294.763 533.365,294.254 533.365,293.692L533.365,267.821L557.84,267.821C557.91,267.821 557.935,267.788 557.998,267.788L559.906,265.575L543.173,246.4C542.177,246.825 533.365,262.588 533.365,262.588L533.365,249.758C533.365,249.758 535.065,244.742 540.298,243.45C540.298,243.404 540.277,243.333 540.277,243.275L517.623,226.35L508.265,236.754L496.635,236.754L496.635,233.829C496.635,233.829 497.594,225.079 501.385,222.096C500.44,221.733 470.381,214.25 470.381,214.25L470.381,236.754L440.019,236.754L442.227,242.054L470.381,242.054L470.381,262.704L427.819,262.704L430.148,267.821L470.381,267.821L470.381,288.288L440.019,288.288L440.398,289.175L442.302,293.083L425.769,279.671C425.581,279.571 417.74,291.746 417.74,291.746L413.198,291.746L427.815,248.633C427.815,248.633 433.51,244.225 438.131,242.975L412.34,219.446L402.298,230.396L374.44,230.396L376.665,235.708L403.798,235.708C403.798,235.708 380.06,304.471 379.952,304.675C379.915,304.771 407.765,307.588 407.765,307.588L411.427,296.867L419.144,296.867C417.498,309.217 414.215,324.925 407.24,340.183C400.506,331.304 393.831,321.225 390.527,311.621L389.965,309.979C389.965,309.979 391.594,340.4 401.248,355.092C398.194,371.958 371.281,398.942 371.281,398.942C397.602,388.617 407.615,376.154 414.081,369.571C426.585,381.838 444.969,392.929 516.577,392.929C528.61,392.929 545.452,391.846 545.469,391.667C547.431,374.592 558.06,363.883 558.06,363.883C532.46,369.033 474.794,368.217 474.794,368.217Z" style="fill:rgb(253,253,253);fill-rule:nonzero;"/>
</svg>
